{"title":"Priest *2011* [BRRip.XviD-miguel] [ENG]","uid":6568177,"size":1607747941,"categoryP":"video","categoryS":"movies","magnet":"?xt=urn:btih:6bdcbd2b560026560f78a599cd38b83f7536266d&amp;dn=Priest+%2A2011%2A+%5BBRRip.XviD-miguel%5D+%5BENG%5D&amp;tr=udp%3A%2F%2Ftracker.openbittorrent.com%3A80&amp;tr=udp%3A%2F%2Fopen.demonii.com%3A1337&amp;tr=udp%3A%2F%2Ftracker.coppersurfer.tk%3A6969&amp;tr=udp%3A%2F%2Fexodus.desync.com%3A6969","seeders":0,"leechers":1,"uploader":"miguel1983","files":-1,"time":1311767286,"description":" &lt;a href=&quot;http://img3.imageshack.us/img3/7537/d8b758.png&quot; rel=&quot;nofollow&quot; target=&quot;_NEW&quot;&gt;http://img3.imageshack.us/img3/7537/d8b758.png&lt;/a&gt;\n\nCountry.......: USA\nGenre.........: Action, Thriller, Horror, Sci-Fi\nDate release..: 03.03.2011 [World]\nDirector......: Scott Charles Stewart\nWriters.......: Cory Goodman, Min Woo Hyung\nDuration......: 87 min.\nMore..........: http://www.imdb.com/title/tt0822847\nTrailer.......: http://www.imdb.com/video/imdb/vi4157250841\nTrailer.......:\n\nPilot :\nA priest disobeys church law to track down the vampires who kidnapped his niece.\n\nCats :\nPaul Bettany   ...   Priest\nKarl Urban ... Black Hat\nCam Gigandet ... Hicks\nMaggie Q ... Priestess\nLily Collins ... Lucy Pace\nBrad Dourif ... Salesman\nStephen Moyer ... Owen Pace\nChristopher Plummer ... Monsignor Orelas\nAlan Dale ... Monsignor Chamberlain\nMadchen Amick ... Shannon Pace\nJacob Hopkins ... Boy\nDave Florek ... Crocker\nJoel Polinsky ... Dr. Tomlin\nJosh Wingate ... Familiar\nJon Braver ... Familiar\n\nData Technical :\n!!! SAMPLE !!!\nAudio.....: English\nSubtitles.: Polish .txt\nFormat                           : AVI\nFormat/Info                      : Audio Video Interleave\nFile size                        : 1.49 GiB\nDuration                         : 1h 27mn\nOverall bit rate                 : 2 440 Kbps\nWriting library                  : VirtualDub build 30586/release\nVideo\nID                               : 0\nFormat                           : MPEG-4 Visual\nFormat profile                   : Advanced Simple@L5\nFormat settings, BVOP            : Yes\nFormat settings, QPel            : No\nFormat settings, GMC             : No warppoints\nFormat settings, Matrix          : Default (MPEG)\nMuxing mode                      : Packed bitstream\nCodec ID                         : XVID\nCodec ID/Hint                    : XviD\nDuration                         : 1h 27mn\nBit rate                         : 1 791 Kbps\nWidth                            : 720 pixels\nHeight                           : 304 pixels\nDisplay aspect ratio             : 2.35:1\nFrame rate                       : 23.976 fps\nColor space                      : YUV\nChroma subsampling               : 4:2:0\nBit depth                        : 8 bits\nScan type                        : Progressive\nBits/(Pixel*Frame)               : 0.341\nStream size                      : 1.09 GiB (73%)\nWriting library                  : XviD 64\nAudio\nID                               : 1\nFormat                           : AC-3\nFormat/Info                      : Audio Coding 3\nMode extension                   : CM (complete main)\nCodec ID                         : 2000\nDuration                         : 1h 27mn\nBit rate mode                    : Constant\nBit rate                         : 640 Kbps\nChannel(s)                       : 6 channels\nChannel positions                : Front: L C R, Side: L R, LFE\nSampling rate                    : 48.0 KHz\nBit depth                        : 16 bits\nStream size                      : 400 MiB (26%)\nAlignment                        : Aligned on interleaves\nInterleave, duration             : 42 ms (1.00 video frame)\nInterleave, preload duration     : 512 ms\n\nScreen : &lt;a href=&quot;\nhttp://img811.imageshack.us/img811/1381/priest2011s1.jpg&quot; rel=&quot;nofollow&quot; target=&quot;_NEW&quot;&gt;\nhttp://img811.imageshack.us/img811/1381/priest2011s1.jpg&lt;/a&gt; &lt;a href=&quot;\nhttp://img64.imageshack.us/img64/6907/priest2011s2.jpg&quot; rel=&quot;nofollow&quot; target=&quot;_NEW&quot;&gt;\nhttp://img64.imageshack.us/img64/6907/priest2011s2.jpg&lt;/a&gt; &lt;a href=&quot;\nhttp://img21.imageshack.us/img21/7376/priest2011s3.jpg&quot; rel=&quot;nofollow&quot; target=&quot;_NEW&quot;&gt;\nhttp://img21.imageshack.us/img21/7376/priest2011s3.jpg&lt;/a&gt; &lt;a href=&quot;\nhttp://img21.imageshack.us/img21/4316/priest2011s4.jpg&quot; rel=&quot;nofollow&quot; target=&quot;_NEW&quot;&gt;\nhttp://img21.imageshack.us/img21/4316/priest2011s4.jpg&lt;/a&gt; &lt;a href=&quot;\nhttp://img820.imageshack.us/img820/1124/priest2011s5.jpg&quot; rel=&quot;nofollow&quot; target=&quot;_NEW&quot;&gt;\nhttp://img820.imageshack.us/img820/1124/priest2011s5.jpg&lt;/a&gt;","torrent":{"xt":"urn:btih:6bdcbd2b560026560f78a599cd38b83f7536266d","amp;dn":"Priest+%2A2011%2A+%5BBRRip.XviD-miguel%5D+%5BENG%5D","amp;tr":["udp%3A%2F%2Ftracker.openbittorrent.com%3A80","udp%3A%2F%2Fopen.demonii.com%3A1337","udp%3A%2F%2Ftracker.coppersurfer.tk%3A6969","udp%3A%2F%2Fexodus.desync.com%3A6969"],"infoHash":"6bdcbd2b560026560f78a599cd38b83f7536266d","infoHashBuffer":{"type":"Buffer","data":[107,220,189,43,86,0,38,86,15,120,165,153,205,56,184,63,117,54,38,109]},"announce":[],"urlList":[]}}